<svg width="1280" height="720" xmlns="http://www.w3.org/2000/svg" xmlns:xlink="http://www.w3.org/1999/xlink" overflow="hidden">
	<defs>
		<clipPath id="clip0">
			<rect x="0" y="0" width="1280" height="720"/>
		</clipPath>
	</defs>
	<g clip-path="url(#clip0)">
		<rect x="0" y="0" width="1280" height="720" fill="#000000" opacity="0"/>
		<path d="M1150.5 567.5 130.5 567.5 334.5 146.5 946.5 146.5Z" stroke="#004D92" stroke-width="0.333333" stroke-miterlimit="8" fill="#004D92" fill-rule="evenodd"/>
		<path d="M640 152.448C594.918 47.87 341.416-14.3952 222 12.0933L222 442.446C361.032 480.63 531.037 442.446 639.097 557 639.398 422.149 639.699 287.299 640 152.448Z" stroke="#004D92" stroke-width="8" stroke-linejoin="round" stroke-miterlimit="10" fill="#FFFFFF" fill-rule="evenodd"/>
		<path d="M418 146.448C372.918 41.87 119.416-20.3952 0 6.09329L0 436.446C139.032 474.63 309.037 436.446 417.097 551 417.398 416.149 417.699 281.299 418 146.448Z" stroke="#004D92" stroke-width="8" stroke-linejoin="round" stroke-miterlimit="10" fill="#FFFFFF" fill-rule="evenodd" transform="matrix(-1 -8.74228e-08 -8.74228e-08 1 1057 6)"/>
		<path d="M261 232.667C261 216.283 274.282 203 290.667 203L493.333 203C509.718 203 523 216.283 523 232.667L523 351.333C523 367.717 509.718 381 493.333 381L290.667 381C274.282 381 261 367.717 261 351.333Z" fill="#004D92" fill-rule="evenodd"/>
		<path d="M358 243 450 296.5 358 350Z" stroke="#FFFFFF" stroke-width="12" stroke-linecap="round" stroke-linejoin="round" stroke-miterlimit="10" fill="none" fill-rule="evenodd"/>
		<path d="M388.932 147.183C383.259 160.588 418.344 188.25 467.295 208.968 516.247 229.686 560.53 235.615 566.203 222.211L545.658 270.753C539.985 284.157 495.703 278.228 446.751 257.51 397.799 236.792 362.714 209.13 368.388 195.725Z" fill="#004D92" fill-rule="evenodd"/>
		<path d="M388.932 147.183C394.606 133.779 438.888 139.708 487.84 160.426 536.792 181.144 571.877 208.806 566.203 222.211 560.53 235.615 516.247 229.686 467.295 208.968 418.344 188.25 383.259 160.588 388.932 147.183Z" fill="#6694BE" fill-rule="evenodd"/>
		<path d="M566.203 222.211C560.53 235.615 516.247 229.686 467.295 208.968 418.344 188.25 383.259 160.588 388.932 147.183 394.606 133.779 438.888 139.708 487.84 160.426 536.792 181.144 571.877 208.806 566.203 222.211L545.658 270.753C539.985 284.157 495.703 278.228 446.751 257.51 397.799 236.792 362.714 209.13 368.388 195.725L388.932 147.183" stroke="#FFFFFF" stroke-width="8" stroke-miterlimit="8" fill="none" fill-rule="evenodd"/>
		<path d="M338.424 126.885 495.357 144.511 617.262 244.899 460.329 227.273Z" stroke="#FFFFFF" stroke-width="8" stroke-miterlimit="8" fill="#004D92" fill-rule="evenodd"/>
		<path d="M690 262.5C690 170.545 763.649 96 854.5 96 945.351 96 1019 170.545 1019 262.5 1019 354.455 945.351 429 854.5 429 763.649 429 690 354.455 690 262.5Z" stroke="#FFFFFF" stroke-width="8" stroke-miterlimit="8" fill="#004D92" fill-rule="evenodd"/>
		<path d="M957.357 235.151C949.31 231.444 945.967 229.389 940.797 225.48 935.627 221.571 929.659 214.7 926.336 211.697 910.281 205.028 895.043 210.408 855.081 231.403 824.099 245.75 811.426 238.516 811.931 246.153 819.473 265.859 859.551 248.208 864.061 259.33 867.19 268.297 856.694 286.532 848.434 298.017 820.581 343.111 799.395 350.566 811.465 362.092 818.015 369.466 834.789 346.295 841.436 340.33 850.766 330.981 867.248 311.477 870.708 314.58 873.857 316.877 861.035 339.83 856.48 352.904 853.118 362.555 844.313 376.236 842.719 383.128 841.125 390.019 844.196 392.678 846.917 394.25 849.639 395.822 851.971 395.902 855.081 394.25 859.94 388.245 866.665 373.537 872.457 363.18 879.882 351.654 891.155 327.556 894.732 328.604 898.658 329.47 891.738 356.994 891.933 369.224 891.991 378.614 889.27 391.066 889.251 396.668 889.464 399.489 893.429 401.907 895.898 401.987 898.366 402.068 901.34 401.907 904.061 397.151L911.175 353.992C914.013 345.126 914.518 327.435 919.688 327.395 924.47 327.596 924.586 339.524 925.753 347.584L929.485 381.556C930.534 384.981 934.791 385.767 936.948 385.545 939.106 385.324 942.779 383.007 942.429 380.226 942.468 358.304 941.691 329.611 944.062 314.58 951.254 291.65 973.256 256.268 957.357 235.151Z" fill="#FFFFFF" fill-rule="evenodd"/>
		<path d="M795.49 319.969C804.217 318.514 815.996 319.41 818.684 319.358 821.372 319.306 853.553 272.74 852.278 268.797 849.437 265.148 849.082 271.881 820.16 266.6 810.882 262.737 794.304 256.184 801.988 238.076 811.833 225.437 817.376 232.261 828.42 228.558 836.496 225.558 849.352 223.417 849.66 220.222 848.694 205.021 852.877 158.124 852.949 142.99 852.396 138.176 849.002 136.628 845.482 135.699 842.275 134.775 838.56 136.623 838.143 139.74 836.041 145.532 834.09 158.43 831.895 168.372 829.409 181.314 828.113 207.459 822.259 206.661 817.271 206.516 814.59 178.577 811.952 166.432 809.313 154.286 808.964 140.366 806.428 133.789 803.892 127.212 799.865 126.741 796.736 126.971 793.606 127.2 791.633 128.442 789.985 131.548 789.325 139.225 791.991 155.127 792.993 166.916 793.3 180.585 797.455 206.78 793.912 207.922 790.181 209.409 780.509 182.83 773.508 172.852 768.209 165.141 763.495 153.346 760.378 148.716 758.623 146.509 753.992 146.738 751.906 148.056 749.82 149.374 747.451 151.175 747.86 156.622L766.116 196.205C768.728 205.108 778.204 219.981 773.951 222.914 769.885 225.429 763.117 215.657 757.645 209.664L735.56 183.74C732.776 181.504 728.817 183.243 727.157 184.635 725.497 186.028 723.755 189.999 725.6 192.096 737.828 210.197 754.518 233.424 760.964 247.15 767.841 270.093 770.533 311.469 795.49 319.969Z" fill="#FFFFFF" fill-rule="evenodd"/>
		<path d="M761.213 305.211C754.484 306.845 764.854 320.404 769.049 325.52 774.472 331.109 786.543 339.434 787.81 334.494 789.195 328.374 782.862 331.346 773.799 321.033 763.667 311.666 767.941 303.578 761.213 305.211Z" fill="#FFFFFF" fill-rule="evenodd"/>
		<path d="M751.051 309.425C744.303 310.338 752.858 325.229 756.362 330.879 761.007 337.143 771.823 346.915 773.625 342.047 775.678 335.995 769.162 338.309 761.508 326.854 752.703 316.24 757.799 308.512 751.051 309.425Z" fill="#FFFFFF" fill-rule="evenodd"/>
		<path d="M969.638 271.687C975.835 274.508 976.525 257.349 976.568 250.701 975.973 242.924 972.023 228.894 967.905 232.054 962.945 236.083 969.692 237.595 970.07 251.366 971.869 265.04 963.44 268.866 969.638 271.687Z" fill="#FFFFFF" fill-rule="evenodd"/>
		<path d="M981.275 275.25C987.3 278.423 988.975 261.332 989.401 254.697 989.253 246.899 986.116 232.665 981.824 235.583 976.639 239.32 983.288 241.218 982.874 254.988 983.884 268.742 975.249 272.078 981.275 275.25Z" fill="#FFFFFF" fill-rule="evenodd"/>
		<text fill="#FF9800" font-family="Arial,Arial_MSFontService,sans-serif" font-weight="700" font-size="160" transform="translate(122.6 718)">EAD<tspan fill="#004D92" x="337.667" y="0">Inclusivo</tspan></text>
		<rect x="933" y="602" width="23" height="22" fill="#FF9800"/>
	</g>
</svg>